<svg width="512" height="512" viewBox="0 0 512 512" fill="none" xmlns="http://www.w3.org/2000/svg">
<path d="M360.803 244.165C412.672 244.165 454.72 286.213 454.72 338.083C454.72 389.952 412.672 432 360.803 432H284.697C263.234 432 245.835 414.601 245.835 393.138V283.028C245.835 261.564 263.234 244.165 284.697 244.165H360.803Z" fill="#CED600"/>
<path d="M228.023 79C249.486 79 266.885 96.3993 266.885 117.862V227.972C266.885 249.436 249.486 266.835 228.023 266.835H151.917C100.048 266.835 58 224.787 58 172.917C58 121.048 100.048 79 151.917 79H228.023Z" fill="#CED600"/>
</svg>
