<svg width="512" height="512" viewBox="0 0 512 512" fill="none" xmlns="http://www.w3.org/2000/svg">
<path d="M449.725 109.395C449.725 94.265 437.46 82 422.331 82H332.537C290.51 82 256.44 116.07 256.44 158.096V179.404C256.44 221.43 290.51 255.5 332.537 255.5H449.725V109.395Z" fill="#CED600"/>
<path d="M449.725 255.5H332.537C290.51 255.5 256.44 289.57 256.44 331.596V352.903C256.44 394.93 290.51 429 332.537 429H422.331C437.46 429 449.725 416.735 449.725 401.605V255.5Z" fill="#CED600"/>
<path d="M62 109.395C62 94.265 74.265 82 89.3947 82H179.189C221.216 82 255.285 116.07 255.285 158.096V179.404C255.285 221.43 221.216 255.5 179.189 255.5H62V109.395Z" fill="#CED600"/>
<path d="M62 255.5H179.189C221.216 255.5 255.285 289.57 255.285 331.596V352.903C255.285 394.93 221.216 429 179.189 429H89.3947C74.2651 429 62 416.735 62 401.605V255.5Z" fill="#CED600"/>
</svg>
