<svg width="512" height="512" viewBox="0 0 512 512" fill="none" xmlns="http://www.w3.org/2000/svg">
<path d="M257.527 59C306.445 59 346.101 98.6558 346.101 147.574V168.953H364.426C413.344 168.953 453 208.609 453 257.527C453 306.445 413.344 346.101 364.426 346.101H346.101V364.426C346.101 413.344 306.445 453 257.527 453C208.609 453 168.953 413.344 168.953 364.426V346.101H147.574C98.6558 346.101 59 306.445 59 257.527C59 208.609 98.6558 168.953 147.574 168.953H168.953V147.574C168.953 98.6558 208.609 59 257.527 59Z" fill="#CED600"/>
</svg>
