<svg width="512" height="512" viewBox="0 0 512 512" fill="none" xmlns="http://www.w3.org/2000/svg">
<path d="M327.935 198.12C359.032 198.908 384 224.364 384 255.651C384 287.402 358.288 313.147 326.549 313.201C358.287 313.254 384 339 384 370.75C384 402.534 358.234 428.302 326.451 428.302H185.549C153.766 428.302 128 402.534 128 370.75C128 339 153.713 313.254 185.451 313.201C153.712 313.147 128 287.402 128 255.651C128 224.364 152.968 198.908 184.065 198.12L185.549 198.102C153.766 198.101 128 172.333 128 140.549C128 108.766 153.766 83.0005 185.549 83H326.451C358.234 83.0005 384 108.766 384 140.549C384 172.333 358.234 198.101 326.451 198.102L327.935 198.12Z" fill="#CED600"/>
</svg>
