<svg width="512" height="512" viewBox="0 0 512 512" fill="none" xmlns="http://www.w3.org/2000/svg">
<path d="M257.43 70C318.224 70 367.507 118.643 367.507 178.648C367.507 195.11 363.787 210.711 357.148 224.693C414.101 228.846 459 275.769 459 333.042C459 393.047 409.717 441.69 348.923 441.69C309.849 441.69 275.535 421.593 256 391.303C236.465 421.593 202.151 441.69 163.077 441.69C102.283 441.69 53 393.047 53 333.042C53 274.842 99.365 227.332 157.627 224.528C151.038 210.589 147.352 195.044 147.352 178.648C147.352 118.643 196.635 70 257.43 70Z" fill="#CED600"/>
</svg>
