<svg width="363" height="112" viewBox="0 0 363 112" fill="none" xmlns="http://www.w3.org/2000/svg">
<path d="M13.9772 77.4754C22.6482 72.0338 34.0462 74.7204 39.4348 83.4769C44.8233 92.2335 42.1617 103.744 33.4906 109.185C24.8195 114.627 13.4225 111.94 8.03399 103.183C2.64553 94.4264 5.30616 82.9171 13.9772 77.4754Z" fill="#CED600"/>
<path fill-rule="evenodd" clip-rule="evenodd" d="M131.61 30.9995C137.043 30.9995 141.951 31.9678 146.333 33.9035C150.714 35.7513 154.439 38.3468 157.506 41.6903C160.661 45.0338 163.071 48.9931 164.736 53.5683C166.401 58.0557 167.234 62.9393 167.234 68.2185C167.234 73.4098 166.401 78.2933 164.736 82.8687C163.071 87.3561 160.661 91.2722 157.506 94.6158C154.439 97.9592 150.714 100.599 146.333 102.534C141.951 104.47 137.043 105.439 131.61 105.439C126.177 105.439 121.226 104.47 116.756 102.534C112.375 100.599 108.606 97.9593 105.452 94.6158C102.384 91.2722 99.9744 87.3561 98.2217 82.8687C96.5567 78.2933 95.7245 73.4098 95.7245 68.2185C95.7245 62.9393 96.5567 58.0557 98.2217 53.5683C99.9744 48.9931 102.384 45.0338 105.452 41.6903C108.606 38.3468 112.375 35.7513 116.756 33.9035C121.226 31.9678 126.177 30.9995 131.61 30.9995ZM131.479 43.4062C128.412 43.4062 125.695 44.0221 123.329 45.2539C120.963 46.4858 118.992 48.2457 117.414 50.5334C115.837 52.7331 114.654 55.3725 113.865 58.4521C113.076 61.4436 112.681 64.6991 112.681 68.2185C112.681 71.7381 113.076 74.9943 113.865 77.986C114.654 80.9774 115.837 83.5731 117.414 85.7727C118.992 87.9723 120.963 89.6885 123.329 90.9203C125.695 92.152 128.412 92.768 131.479 92.768C134.546 92.768 137.219 92.1521 139.498 90.9203C141.864 89.6885 143.836 87.9724 145.413 85.7727C146.99 83.5731 148.174 80.9775 148.962 77.986C149.839 74.9943 150.277 71.7381 150.277 68.2185C150.277 64.6991 149.839 61.4436 148.962 58.4521C148.174 55.3726 146.99 52.733 145.413 50.5334C143.836 48.2458 141.864 46.4858 139.498 45.2539C137.219 44.0221 134.546 43.4062 131.479 43.4062Z" fill="#CED600"/>
<path fill-rule="evenodd" clip-rule="evenodd" d="M327.376 30.9995C332.809 30.9995 337.717 31.9678 342.099 33.9035C346.48 35.7513 350.205 38.3468 353.272 41.6903C356.427 45.0338 358.837 48.9931 360.502 53.5683C362.167 58.0557 363 62.9393 363 68.2185C363 73.4098 362.167 78.2933 360.502 82.8687C358.837 87.3561 356.427 91.2722 353.272 94.6158C350.205 97.9592 346.48 100.599 342.099 102.534C337.717 104.47 332.809 105.439 327.376 105.439C321.943 105.439 316.991 104.47 312.522 102.534C308.141 100.599 304.372 97.9593 301.217 94.6158C298.15 91.2722 295.74 87.3561 293.988 82.8687C292.323 78.2933 291.49 73.4098 291.49 68.2185C291.49 62.9393 292.323 58.0557 293.988 53.5683C295.74 48.9931 298.15 45.0338 301.217 41.6903C304.372 38.3468 308.14 35.7513 312.522 33.9035C316.991 31.9678 321.943 30.9995 327.376 30.9995ZM327.245 43.4062C324.178 43.4062 321.461 44.0221 319.095 45.2539C316.729 46.4858 314.757 48.2457 313.18 50.5334C311.603 52.7331 310.419 55.3725 309.631 58.4521C308.842 61.4436 308.447 64.6991 308.447 68.2185C308.447 71.7381 308.842 74.9943 309.631 77.986C310.419 80.9774 311.603 83.5731 313.18 85.7727C314.757 87.9723 316.729 89.6885 319.095 90.9203C321.461 92.152 324.178 92.768 327.245 92.768C330.312 92.768 332.985 92.1521 335.264 90.9203C337.63 89.6885 339.602 87.9724 341.179 85.7727C342.756 83.5731 343.939 80.9775 344.728 77.986C345.605 74.9943 346.043 71.7381 346.043 68.2185C346.043 64.6991 345.605 61.4436 344.728 58.4521C343.94 55.3726 342.756 52.733 341.179 50.5334C339.602 48.2458 337.63 46.4858 335.264 45.2539C332.985 44.0221 330.312 43.4062 327.245 43.4062Z" fill="#CED600"/>
<path d="M257.6 30.9995C264.786 30.9996 270.351 33.1997 274.295 37.5991C278.326 41.9104 280.341 47.8934 280.341 55.548V103.326H263.647V57.7925C263.647 53.745 262.595 50.5766 260.492 48.2889C258.389 46.0015 255.628 44.8583 252.211 44.8582C248.092 44.8582 244.674 46.3975 241.957 49.4771C239.328 52.5567 238.014 56.6046 238.014 61.6199V103.326H221.319V57.7925C221.319 53.745 220.355 50.5766 218.427 48.2889C216.499 46.0015 213.783 44.8583 210.278 44.8582C208.35 44.8582 206.509 45.2975 204.757 46.1773C203.004 46.9692 201.426 48.1132 200.024 49.609C198.709 51.0168 197.658 52.7767 196.869 54.8885C196.08 56.9122 195.686 59.1563 195.686 61.6199V103.326H178.992V32.8472H195.16V43.5381H195.555C197.833 39.5787 200.681 36.499 204.099 34.2993C207.604 32.0996 211.767 30.9995 216.587 30.9995C221.056 30.9995 224.868 32.0996 228.023 34.2993C231.265 36.4989 233.675 39.7983 235.253 44.1976H235.517C238.321 39.6224 241.607 36.279 245.375 34.1674C249.143 32.0556 253.219 30.9995 257.6 30.9995Z" fill="#CED600"/>
<path d="M55.6396 1.51084C60.8732 -1.7734 76.6087 -0.612906 81.5515 14.2418C83.0006 23.62 80.2476 38.9078 60.3001 36.6183C54.6218 34.4143 42.2262 29.9737 38.0307 44.827C36.0982 50.7161 41.6048 60.515 55.8171 56.4231C60.4063 55.1018 60.2813 55.1004 61.1014 54.9771C64.7996 54.4207 69.7444 53.0042 75.2864 57.0413C77.7722 58.4996 79.9402 60.5647 81.5525 63.1848C86.941 71.9413 84.081 83.5761 75.164 89.1722C67.1769 94.1847 57.0405 92.6511 51.1406 85.9842C48.2218 83.045 46.307 79.0274 46.4079 74.0176C46.1696 69.2828 43.0281 60.925 30.7697 63.8795C24.6632 65.3514 14.7918 69.522 6.79641 61.8123C5.2989 60.5407 3.96615 59.0062 2.87106 57.2266C-0.827366 51.2165 -0.849477 43.9902 2.21116 38.3925C3.19948 36.1193 4.66389 33.9667 6.75629 32.1877L55.6396 1.51084Z" fill="#CED600"/>
</svg>
