<svg width="800" height="273" viewBox="0 0 800 273" fill="none" xmlns="http://www.w3.org/2000/svg">
<path fill-rule="evenodd" clip-rule="evenodd" d="M204.044 75.7111C217.835 75.7111 230.271 78.3799 241.349 83.7185C252.653 88.8145 262.262 95.9731 270.175 105.194C278.314 114.173 284.53 124.609 288.826 136.5C293.122 148.391 295.27 161.009 295.27 174.356C295.27 187.702 293.122 200.321 288.826 212.211C284.53 223.859 278.314 234.294 270.175 243.515C262.262 252.736 252.653 260.017 241.349 265.356C230.271 270.452 217.835 273 204.044 273C190.027 273 177.479 270.451 166.402 265.356C155.323 260.017 145.716 252.736 137.577 243.515C129.664 234.293 123.558 223.859 119.263 212.211C114.967 200.321 112.82 187.702 112.82 174.356C112.82 161.009 114.967 148.39 119.263 136.5C123.558 124.609 129.664 114.173 137.577 105.194C145.716 95.9735 155.324 88.8144 166.402 83.7185C177.706 78.3799 190.253 75.7112 204.044 75.7111ZM204.044 109.928C194.097 109.928 185.166 112.839 177.254 118.663C169.341 124.487 163.011 132.253 158.263 141.959C153.516 151.423 151.141 162.343 151.141 174.719C151.141 186.852 153.515 197.773 158.263 207.48C163.011 217.186 169.341 224.83 177.254 230.411C185.166 235.992 194.097 238.783 204.044 238.783C213.766 238.783 222.584 235.992 230.497 230.411C238.636 224.587 245.079 216.821 249.827 207.115C254.575 197.166 256.949 186.246 256.949 174.356C256.949 162.222 254.575 151.301 249.827 141.594C245.079 131.888 238.636 124.244 230.497 118.663C222.584 112.839 213.766 109.928 204.044 109.928Z" fill="#CED600"/>
<path fill-rule="evenodd" clip-rule="evenodd" d="M708.774 75.7111C722.565 75.7111 735.001 78.3799 746.079 83.7185C757.383 88.8144 766.991 95.9735 774.904 105.194C783.043 114.173 789.26 124.609 793.556 136.5C797.851 148.39 800 161.009 800 174.356C800 187.702 797.852 200.321 793.556 212.211C789.26 223.859 783.043 234.293 774.904 243.515C766.991 252.736 757.383 260.017 746.079 265.356C735.001 270.452 722.565 273 708.774 273C694.757 273 682.21 270.451 671.131 265.356C660.053 260.017 650.444 252.736 642.305 243.515C634.392 234.294 628.288 223.859 623.993 212.211C619.697 200.321 617.549 187.702 617.549 174.356C617.549 161.009 619.697 148.39 623.993 136.5C628.288 124.609 634.392 114.173 642.305 105.194C650.444 95.9732 660.053 88.8145 671.131 83.7185C682.436 78.38 694.983 75.7111 708.774 75.7111ZM708.774 109.928C698.827 109.928 689.897 112.839 681.984 118.663C674.071 124.487 667.739 132.253 662.991 141.959C658.244 151.423 655.871 162.343 655.871 174.719C655.871 186.852 658.244 197.773 662.991 207.48C667.739 217.186 674.071 224.83 681.984 230.411C689.897 235.992 698.827 238.783 708.774 238.783C718.496 238.783 727.314 235.992 735.227 230.411C743.366 224.587 749.809 216.821 754.557 207.115C759.305 197.166 761.677 186.246 761.677 174.356C761.677 162.222 759.305 151.301 754.557 141.594C749.809 131.888 743.366 124.244 735.227 118.663C727.314 112.839 718.496 109.928 708.774 109.928Z" fill="#CED600"/>
<path d="M80.3718 0C87.6065 0 94.7294 1.09192 101.738 3.27593C108.746 5.21724 115.416 8.00829 121.746 11.6481L113.606 41.4944C110.215 39.068 106.146 37.2484 101.398 36.0352C96.8765 34.5792 92.4675 33.8519 88.1719 33.8519C79.5808 33.8519 72.9112 37.3701 68.1635 44.4074C63.4158 51.4447 61.0414 61.6368 61.0414 74.9833V83.7185H106.484V114.659H61.0414V269.359H23.7385V114.659H0V83.7185H23.7385V76.0759C23.7385 60.5453 25.999 47.0757 30.5207 35.6704C35.2684 24.2656 41.8245 15.5295 50.1892 9.46295C58.7803 3.15372 68.8417 8.97313e-05 80.3718 0Z" fill="#CED600"/>
<path d="M539.633 75.7111C550.032 75.7112 558.737 77.7748 565.745 81.9C572.754 86.0253 578.18 91.7276 582.024 99.0074C585.867 106.045 588.579 114.295 590.162 123.759C591.97 132.98 592.876 142.808 592.876 153.243V269.359H555.571V162.707C555.571 144.993 552.859 132.01 547.433 123.759C542.007 115.509 534.092 111.383 523.693 111.383C513.293 111.383 503.571 115.631 494.528 124.124C485.711 132.375 479.493 143.172 475.876 156.519V269.359H438.573V162.707C438.573 144.993 435.859 132.01 430.433 123.759C425.007 115.509 417.207 111.383 407.034 111.383C396.634 111.383 386.913 115.509 377.869 123.759C369.052 132.01 362.721 142.809 358.877 156.156V269.359H321.574V78.987H355.487V117.207C362.496 103.861 371.651 93.6688 382.956 86.6315C394.486 79.3515 407.599 75.7111 422.294 75.7111C436.99 75.7111 448.52 79.8365 456.885 88.087C465.476 96.3377 470.789 106.652 472.824 119.028C480.51 104.953 489.894 94.2744 500.972 86.9944C512.276 79.472 525.164 75.7111 539.633 75.7111Z" fill="#CED600"/>
</svg>
